0
SECTION
2
HEADER
9
$INSUNITS
70
4
9
$ACADVER
1
AC1014
9
$HANDSEED
5
FFFF
0
ENDSEC
0
SECTION
2
TABLES
0
TABLE
2
VPORT
5
8
100
AcDbSymbolTable
0
ENDTAB
0
TABLE
2
LTYPE
5
5
100
AcDbSymbolTable
0
LTYPE
5
14
100
AcDbSymbolTableRecord
100
AcDbLinetypeTableRecord
2
BYBLOCK
70
0
0
LTYPE
5
15
100
AcDbSymbolTableRecord
100
AcDbLinetypeTableRecord
2
BYLAYER
70
0
0
LTYPE
5
16
100
AcDbSymbolTableRecord
100
AcDbLinetypeTableRecord
2
DASHED
70
0
3
Dashed __ __ __ __ __ __ __ __ __ __ __ __ __ _
72
65
73
2
40
0.75
49
0.5
74
0
49
-0.25
74
0
0
ENDTAB
0
TABLE
2
LAYER
5
2
100
AcDbSymbolTable
70
3
0
LAYER
5
50
100
AcDbSymbolTableRecord
100
AcDbLayerTableRecord
2
1
70
0
62
7
6
DASHED
0
LAYER
5
51
100
AcDbSymbolTableRecord
100
AcDbLayerTableRecord
2
0
70
0
62
7
6
CONTINUOUS
0
ENDTAB
0
TABLE
2
STYLE
5
3
100
AcDbSymbolTable
70
1
0
STYLE
5
11
100
AcDbSymbolTableRecord
100
AcDbTextStyleTableRecord
2
STANDARD
70
0
0
ENDTAB
0
TABLE
2
VIEW
5
6
100
AcDbSymbolTable
70
0
0
ENDTAB
0
TABLE
2
UCS
5
7
100
AcDbSymbolTable
70
0
0
ENDTAB
0
TABLE
2
APPID
5
9
100
AcDbSymbolTable
70
2
0
APPID
5
12
100
AcDbSymbolTableRecord
100
AcDbRegAppTableRecord
2
ACAD
70
0
0
ENDTAB
0
TABLE
2
DIMSTYLE
5
A
100
AcDbSymbolTable
70
1
0
ENDTAB
0
TABLE
2
BLOCK_RECORD
5
1
100
AcDbSymbolTable
70
1
0
BLOCK_RECORD
5
1F
100
AcDbSymbolTableRecord
100
AcDbBlockTableRecord
2
*MODEL_SPACE
0
BLOCK_RECORD
5
1B
100
AcDbSymbolTableRecord
100
AcDbBlockTableRecord
2
*PAPER_SPACE
0
ENDTAB
0
ENDSEC
0
SECTION
2
BLOCKS
0
BLOCK
5
20
100
AcDbEntity
100
AcDbBlockBegin
2
*MODEL_SPACE
0
ENDBLK
5
21
100
AcDbEntity
100
AcDbBlockEnd
0
BLOCK
5
1C
100
AcDbEntity
100
AcDbBlockBegin
2
*PAPER_SPACE
0
ENDBLK
5
1D
100
AcDbEntity
100
AcDbBlockEnd
0
ENDSEC
0
SECTION
2
ENTITIES
0
CIRCLE
5
100
100
AcDbEntity
8
0
100
AcDbCircle
10
0
20
0
30
0
40
1.4050000000000002
210
0
220
0
230
1
0
CIRCLE
5
101
100
AcDbEntity
8
0
100
AcDbCircle
10
-7.5652984185789318
20
-15.516644892467546
30
0
40
0.99999999999999978
210
0
220
0
230
1
0
CIRCLE
5
102
100
AcDbEntity
8
0
100
AcDbCircle
10
-12.41940045716037
20
-11.989933326160608
30
0
40
1.0000000000000009
210
0
220
0
230
1
0
CIRCLE
5
103
100
AcDbEntity
8
0
100
AcDbCircle
10
7.5652984185789274
20
-15.516644892467554
30
0
40
1.0000000000000009
210
0
220
0
230
1
0
LWPOLYLINE
5
104
100
AcDbEntity
8
0
100
AcDbPolyline
90
4
70
1
43
0.0
10
-7.5211244831708761
20
-10.35193976024949
10
-6.3897278964766198
20
-13.898610879607068
10
-8.2289936547161844
20
-11.326238090023358
10
-11.243829935058059
20
-10.37189931330013
0
CIRCLE
5
105
100
AcDbEntity
8
0
100
AcDbCircle
10
-3.0000000447034836
20
17.00000025331974
30
0
40
1
210
0
220
0
230
1
0
LWPOLYLINE
5
106
100
AcDbEntity
8
0
100
AcDbPolyline
90
4
70
1
43
0.0
10
7.5211244831708743
20
-10.351939760249495
10
11.243829935058059
20
-10.371899313300137
10
8.2289936547161808
20
-11.326238090023363
10
6.3897278964766162
20
-13.898610879607073
0
CIRCLE
5
107
100
AcDbEntity
8
0
100
AcDbCircle
10
15.240910021000023
20
8.1064585740552069
30
0
40
1.0000000000000009
210
0
220
0
230
1
0
CIRCLE
5
108
100
AcDbEntity
8
0
100
AcDbCircle
10
12.41940045716037
20
-11.989933326160621
30
0
40
1.0000000000000009
210
0
220
0
230
1
0
LWPOLYLINE
5
109
100
AcDbEntity
8
0
100
AcDbPolyline
90
4
70
1
43
0.0
10
-12.169435047389463
20
3.9540891389238686
10
-15.192898953943981
20
1.7820853932938925
10
-13.314791426538001
20
4.3262379857152329
10
-13.338796960066023
20
7.488424576095893
0
CIRCLE
5
110
100
AcDbEntity
8
0
100
AcDbCircle
10
3.0000000447034836
20
17.00000025331974
30
0
40
1.0000000000000009
210
0
220
0
230
1
0
CIRCLE
5
111
100
AcDbEntity
8
0
100
AcDbCircle
10
-15.240910021000023
20
8.1064585740552122
30
0
40
1.0000000000000009
210
0
220
0
230
1
0
CIRCLE
5
112
100
AcDbEntity
8
0
100
AcDbCircle
10
17.09501201487798
20
2.4001193912532059
30
0
40
1.0000000000000009
210
0
220
0
230
1
0
LWPOLYLINE
5
113
100
AcDbEntity
8
0
100
AcDbPolyline
90
4
70
1
43
0.0
10
12.169435047389463
20
3.9540891389238642
10
13.338796960066023
20
7.4884245760958876
10
13.314791426538001
20
4.3262379857152284
10
15.192898953943981
20
1.7820853932938874
0
CIRCLE
5
114
100
AcDbEntity
8
0
100
AcDbCircle
10
-17.09501201487798
20
2.4001193912532113
30
0
40
1.0000000000000009
210
0
220
0
230
1
0
LWPOLYLINE
5
115
100
AcDbEntity
8
0
100
AcDbPolyline
90
4
70
1
43
0.0
10
3.0000000447034836
20
15.000000223517418
10
0
20
12.795701242651248
10
-3.0000000447034836
20
15.000000223517418
10
0
20
14.000000208616257
0
LWPOLYLINE
5
116
100
AcDbEntity
8
0
100
AcDbPolyline
90
4
70
1
43
0.0
10
1.8327675783603596
20
11.029096369558179
10
10.580134698920807
20
14.562306115744317
10
9.9229376426627596
20
5.1512437590466202
10
2.3511410442046232
20
3.2360680257209595
0
LWPOLYLINE
5
117
100
AcDbEntity
8
0
100
AcDbPolyline
90
4
70
1
43
0.0
10
11.055650299568299
20
1.6651126625384056
10
17.119017548406003
20
-5.5623059816338705
10
7.9654803097717046
20
-7.8454526421315958
10
3.804226121868
20
-1.2360679959186383
0
LWPOLYLINE
5
118
100
AcDbEntity
8
0
100
AcDbPolyline
90
4
70
1
43
0.0
10
-9.9229376426627596
20
5.1512437590466238
10
-10.580134698920805
20
14.562306115744326
10
-1.832767578360357
20
11.029096369558182
10
-2.3511410442046232
20
3.2360680257209617
0
LWPOLYLINE
5
119
100
AcDbEntity
8
0
100
AcDbPolyline
90
4
70
1
43
0.0
10
5.000000074505806
20
-10.000000149011612
10
0
20
-18.000000268220901
10
-5.000000074505806
20
-10.000000149011612
10
0
20
-4.0000000596046448
0
LWPOLYLINE
5
120
100
AcDbEntity
8
0
100
AcDbPolyline
90
4
70
1
43
0.0
10
-7.9654803097717055
20
-7.8454526421315922
10
-17.119017548406003
20
-5.562305981633866
10
-11.055650299568299
20
1.6651126625384083
10
-3.8042261218679996
20
-1.2360679959186367
0
CIRCLE
5
121
100
AcDbEntity
8
0
100
AcDbCircle
10
0
20
0
30
0
40
19.999999999999996
210
0
220
0
230
1
0
ENDSEC
0
SECTION
2
OBJECTS
0
DICTIONARY
5
C
100
AcDbDictionary
3
ACAD_GROUP
350
D
3
ACAD_MLINESTYLE
350
17
0
DICTIONARY
5
D
100
AcDbDictionary
0
DICTIONARY
5
1A
330
C
100
AcDbDictionary
0
DICTIONARY
5
17
100
AcDbDictionary
0
ENDSEC
0
EOF
