0
SECTION
2
HEADER
9
$INSUNITS
70
4
9
$ACADVER
1
AC1014
9
$HANDSEED
5
FFFF
0
ENDSEC
0
SECTION
2
TABLES
0
TABLE
2
VPORT
5
8
100
AcDbSymbolTable
0
ENDTAB
0
TABLE
2
LTYPE
5
5
100
AcDbSymbolTable
0
LTYPE
5
14
100
AcDbSymbolTableRecord
100
AcDbLinetypeTableRecord
2
BYBLOCK
70
0
0
LTYPE
5
15
100
AcDbSymbolTableRecord
100
AcDbLinetypeTableRecord
2
BYLAYER
70
0
0
LTYPE
5
16
100
AcDbSymbolTableRecord
100
AcDbLinetypeTableRecord
2
DASHED
70
0
3
Dashed __ __ __ __ __ __ __ __ __ __ __ __ __ _
72
65
73
2
40
0.75
49
0.5
74
0
49
-0.25
74
0
0
ENDTAB
0
TABLE
2
LAYER
5
2
100
AcDbSymbolTable
70
3
0
LAYER
5
50
100
AcDbSymbolTableRecord
100
AcDbLayerTableRecord
2
1
70
0
62
7
6
DASHED
0
LAYER
5
51
100
AcDbSymbolTableRecord
100
AcDbLayerTableRecord
2
0
70
0
62
7
6
CONTINUOUS
0
ENDTAB
0
TABLE
2
STYLE
5
3
100
AcDbSymbolTable
70
1
0
STYLE
5
11
100
AcDbSymbolTableRecord
100
AcDbTextStyleTableRecord
2
STANDARD
70
0
0
ENDTAB
0
TABLE
2
VIEW
5
6
100
AcDbSymbolTable
70
0
0
ENDTAB
0
TABLE
2
UCS
5
7
100
AcDbSymbolTable
70
0
0
ENDTAB
0
TABLE
2
APPID
5
9
100
AcDbSymbolTable
70
2
0
APPID
5
12
100
AcDbSymbolTableRecord
100
AcDbRegAppTableRecord
2
ACAD
70
0
0
ENDTAB
0
TABLE
2
DIMSTYLE
5
A
100
AcDbSymbolTable
70
1
0
ENDTAB
0
TABLE
2
BLOCK_RECORD
5
1
100
AcDbSymbolTable
70
1
0
BLOCK_RECORD
5
1F
100
AcDbSymbolTableRecord
100
AcDbBlockTableRecord
2
*MODEL_SPACE
0
BLOCK_RECORD
5
1B
100
AcDbSymbolTableRecord
100
AcDbBlockTableRecord
2
*PAPER_SPACE
0
ENDTAB
0
ENDSEC
0
SECTION
2
BLOCKS
0
BLOCK
5
20
100
AcDbEntity
100
AcDbBlockBegin
2
*MODEL_SPACE
0
ENDBLK
5
21
100
AcDbEntity
100
AcDbBlockEnd
0
BLOCK
5
1C
100
AcDbEntity
100
AcDbBlockBegin
2
*PAPER_SPACE
0
ENDBLK
5
1D
100
AcDbEntity
100
AcDbBlockEnd
0
ENDSEC
0
SECTION
2
ENTITIES
0
CIRCLE
5
100
100
AcDbEntity
8
0
100
AcDbCircle
10
-167.69999999999999
20
-53.677657806781511
30
0
40
1.5000000000000213
210
0
220
0
230
1
0
CIRCLE
5
101
100
AcDbEntity
8
0
100
AcDbCircle
10
-183.70000000000002
20
-53.677657806781511
30
0
40
1.4999999999999858
210
0
220
0
230
1
0
CIRCLE
5
102
100
AcDbEntity
8
0
100
AcDbCircle
10
-175.69999999999999
20
-61.677657806781497
30
0
40
1.5000000000000213
210
0
220
0
230
1
0
CIRCLE
5
103
100
AcDbEntity
8
0
100
AcDbCircle
10
-175.69999999999999
20
-45.677657806781525
30
0
40
1.5000000000000213
210
0
220
0
230
1
0
CIRCLE
5
104
100
AcDbEntity
8
0
100
AcDbCircle
10
-175.69800717317435
20
-53.740233026406834
30
0
40
3.0000000000000071
210
0
220
0
230
1
0
LWPOLYLINE
5
105
100
AcDbEntity
8
0
100
AcDbPolyline
90
4
70
1
43
0.0
10
-138.09514816586466
20
-115.72632013050131
10
-160.54825858247943
20
-85.291542312056734
42
0.30908737733114688
10
-140.79889751379423
20
-51.084645524071142
10
-103.21505155617869
20
-55.312220629614316
42
-0.25636182699720356
0
LWPOLYLINE
5
106
100
AcDbEntity
8
0
100
AcDbPolyline
90
4
70
1
43
0.0
10
-248.18096279016999
20
-55.312220629614224
10
-210.59711683255446
20
-51.084645524071135
42
0.30908737733114688
10
-190.84775576386926
20
-85.291542312056734
10
-213.30086618048404
20
-115.72632013050128
42
-0.25636182699720383
0
LWPOLYLINE
5
107
100
AcDbEntity
8
0
100
AcDbPolyline
90
4
70
1
43
0.0
10
-140.81791056348837
20
9.8178416808951141
42
0.25636182699720333
10
-210.57810378286021
20
9.8178416808951638
10
-195.44736824185949
20
-24.844511243092562
42
-0.30908737733114638
10
-155.94864610448911
20
-24.844511243092626
0
LWPOLYLINE
5
108
100
AcDbEntity
8
0
100
AcDbPolyline
90
40
70
1
43
0.0
10
-252.69304997049616
20
-95.309613399929134
42
0.070806278377817902
10
-238.03776690975826
20
-115.1405942304339
10
-245.47302592128284
20
-125.37435030791673
42
0.075646679164885863
10
-221.00807294039001
20
-142.88616922189806
10
-213.55443654834147
20
-132.6271188501164
42
0.070806278377817902
10
-190.04170542416378
20
-140.05656010584514
10
-190.04170542416375
20
-152.70617828276545
42
0.075646679164885489
10
-159.95595379758294
20
-152.49339882639546
10
-159.95595379758288
20
-139.81251518227884
42
0.070806278377817514
10
-136.56683873106377
20
-132.00262282096386
10
-129.13157971953919
20
-142.23637889844665
42
0.075646679164885586
10
-104.91676399153664
20
-124.38027559195092
10
-112.37040038358521
20
-114.12122522016926
42
0.070806278377817708
10
-98.038748363352681
20
-94.055112675354721
10
-86.00824656754699
20
-97.964059664377316
42
0.075646679164885586
10
-76.913603314904222
20
-69.285057064207905
10
-88.973840337021954
20
-65.366448514484503
42
0.070806278377817902
10
-89.173855319868792
20
-40.708688756208915
10
-77.143353524063087
20
-36.799741767186298
42
0.075646679164885586
10
-86.642727353734713
20
-8.2522441031612601
10
-98.702964375852417
20
-12.170852652884561
42
0.070806278377817902
10
-113.35824743659035
20
7.660128177620189
10
-105.9229884250658
20
17.893884255102968
42
0.075646679164885863
10
-130.3879414059586
20
35.405703169084319
10
-137.84157779800711
20
25.146652797302664
42
0.070806278377817611
10
-161.3543089221848
20
32.576094053031383
10
-161.35430892218483
20
45.225712229951682
42
0.075646679164885489
10
-191.4400605487657
20
45.012932773581724
10
-191.44006054876573
20
32.332049129465119
42
0.070806278377817708
10
-214.82917561528484
20
24.522156768150118
10
-222.26443462680945
20
34.755912845632864
42
0.075646679164885683
10
-246.47925035481197
20
16.899809539137181
10
-239.0256139627634
20
6.6407591673555277
42
0.070806278377817708
10
-253.35726598299595
20
-13.425353377459004
10
-265.38776777880167
20
-9.5164063884364314
42
0.075646679164885489
10
-274.48241103144437
20
-38.195408988605863
10
-262.42217400932668
20
-42.114017538329207
42
0.070806278377817902
10
-262.2221590264798
20
-66.771777296604796
10
-274.25266082228552
20
-70.68072428562742
42
0.075646679164885391
10
-264.75328699261388
20
-99.228221949652479
0
ENDSEC
0
SECTION
2
OBJECTS
0
DICTIONARY
5
C
100
AcDbDictionary
3
ACAD_GROUP
350
D
3
ACAD_MLINESTYLE
350
17
0
DICTIONARY
5
D
100
AcDbDictionary
0
DICTIONARY
5
1A
330
C
100
AcDbDictionary
0
DICTIONARY
5
17
100
AcDbDictionary
0
ENDSEC
0
EOF
